<svg width="140" height="30" viewBox="0 0 140 30" fill="none" xmlns="http://www.w3.org/2000/svg">
<path d="M23.4189 9.84793C23.4189 14.1822 19.897 17.6959 15.5526 17.6959C11.2081 17.6959 7.68621 14.1822 7.68621 9.84793C7.68621 5.51364 11.2081 2 15.5526 2C19.897 2 23.4189 5.51364 23.4189 9.84793Z" fill="#123CF8"/>
<path d="M5.47028 23.7465C7.71259 21.1718 11.389 19.4931 15.544 19.4931C19.699 19.4931 23.3753 21.1718 25.6176 23.7465C23.3753 26.3213 19.699 28 15.544 28C11.389 28 7.71259 26.3213 5.47028 23.7465Z" fill="#123CF8"/>
<path d="M12.2199 4.08906C11.4618 4.52569 10.7974 5.107 10.2646 5.7998C9.73171 6.49261 9.34085 7.28333 9.1143 8.12684C8.88776 8.97034 8.82996 9.85011 8.94421 10.7159C9.05846 11.5817 9.34252 12.4165 9.78018 13.1728C10.2178 13.9291 10.8005 14.5919 11.4949 15.1235C12.1894 15.6552 12.982 16.0451 13.8274 16.2711C14.6729 16.4971 15.5548 16.5548 16.4226 16.4408C17.2904 16.3268 18.1272 16.0434 18.8853 15.6068L18.1187 14.2823C17.5351 14.6185 16.8907 14.8367 16.2225 14.9244C15.5543 15.0122 14.8752 14.9678 14.2242 14.7938C13.5732 14.6197 12.9629 14.3195 12.4282 13.9102C11.8935 13.5008 11.4448 12.9904 11.1078 12.4081C10.7708 11.8258 10.5521 11.1829 10.4641 10.5163C10.3762 9.84961 10.4207 9.17219 10.5951 8.52269C10.7695 7.87319 11.0705 7.26433 11.4808 6.73087C11.8911 6.19741 12.4027 5.7498 12.9864 5.4136L12.2199 4.08906Z" fill="white"/>
<path d="M0 19.3982L5.984 14.5856L7.86832 16.9177L1.88432 21.7302L0 19.3982Z" fill="#123CF8"/>
<path d="M6.43624 15.1453L7.93223 13.9422L8.91208 15.1548L7.41608 16.358L6.43624 15.1453Z" fill="#123CF8"/>
<path d="M41.4657 6.2C43.1617 6.2 44.5857 6.752 45.7377 7.856C46.8897 8.96 47.4657 10.368 47.4657 12.08C47.4657 13.792 46.8897 15.2 45.7377 16.304C44.5857 17.408 43.1617 17.96 41.4657 17.96H39.2337V23H34.9377V6.2H41.4657ZM41.4657 13.88C41.9457 13.88 42.3457 13.712 42.6657 13.376C43.0017 13.04 43.1697 12.608 43.1697 12.08C43.1697 11.552 43.0017 11.128 42.6657 10.808C42.3457 10.472 41.9457 10.304 41.4657 10.304H39.2337V13.88H41.4657ZM52.8396 13.232C53.0636 12.448 53.5116 11.84 54.1836 11.408C54.8556 10.976 55.6076 10.76 56.4396 10.76V15.176C55.5276 15.032 54.6956 15.2 53.9436 15.68C53.2076 16.16 52.8396 16.944 52.8396 18.032V23H48.8556V11H52.8396V13.232ZM63.4767 23.336C61.7007 23.336 60.1887 22.728 58.9407 21.512C57.6927 20.28 57.0687 18.776 57.0687 17C57.0687 15.224 57.6927 13.728 58.9407 12.512C60.1887 11.28 61.7007 10.664 63.4767 10.664C65.2687 10.664 66.7807 11.28 68.0127 12.512C69.2607 13.728 69.8847 15.224 69.8847 17C69.8847 18.776 69.2607 20.28 68.0127 21.512C66.7807 22.728 65.2687 23.336 63.4767 23.336ZM63.4767 19.496C64.1807 19.496 64.7567 19.264 65.2047 18.8C65.6687 18.336 65.9007 17.736 65.9007 17C65.9007 16.264 65.6687 15.664 65.2047 15.2C64.7567 14.736 64.1807 14.504 63.4767 14.504C62.7887 14.504 62.2127 14.736 61.7487 15.2C61.3007 15.664 61.0767 16.264 61.0767 17C61.0767 17.736 61.3007 18.336 61.7487 18.8C62.2127 19.264 62.7887 19.496 63.4767 19.496ZM82.1249 10.352H76.1009V13.088H82.0049V17.24H76.1009V23H71.8049V6.2H82.1249V10.352ZM89.8907 23.336C88.1147 23.336 86.6027 22.728 85.3547 21.512C84.1067 20.28 83.4827 18.776 83.4827 17C83.4827 15.224 84.1067 13.728 85.3547 12.512C86.6027 11.28 88.1147 10.664 89.8907 10.664C91.6827 10.664 93.1947 11.28 94.4267 12.512C95.6747 13.728 96.2987 15.224 96.2987 17C96.2987 18.776 95.6747 20.28 94.4267 21.512C93.1947 22.728 91.6827 23.336 89.8907 23.336ZM89.8907 19.496C90.5947 19.496 91.1707 19.264 91.6187 18.8C92.0827 18.336 92.3147 17.736 92.3147 17C92.3147 16.264 92.0827 15.664 91.6187 15.2C91.1707 14.736 90.5947 14.504 89.8907 14.504C89.2027 14.504 88.6267 14.736 88.1627 15.2C87.7147 15.664 87.4907 16.264 87.4907 17C87.4907 17.736 87.7147 18.336 88.1627 18.8C88.6267 19.264 89.2027 19.496 89.8907 19.496ZM105.659 11H109.643V23H105.659V21.8C104.939 22.824 103.827 23.336 102.323 23.336C101.027 23.336 99.9629 22.896 99.1309 22.016C98.3149 21.12 97.9069 19.84 97.9069 18.176V11H101.891V17.672C101.891 18.296 102.051 18.768 102.371 19.088C102.707 19.408 103.147 19.568 103.691 19.568C104.315 19.568 104.795 19.384 105.131 19.016C105.483 18.632 105.659 18.088 105.659 17.384V11ZM119.269 10.664C120.565 10.664 121.621 11.112 122.437 12.008C123.269 12.888 123.685 14.16 123.685 15.824V23H119.701V16.328C119.701 15.704 119.533 15.232 119.197 14.912C118.877 14.592 118.445 14.432 117.901 14.432C117.277 14.432 116.789 14.624 116.437 15.008C116.101 15.376 115.933 15.912 115.933 16.616V23H111.949V11H115.933V12.2C116.653 11.176 117.765 10.664 119.269 10.664ZM134.296 6.2H138.28V23H134.296V21.896C133.48 22.856 132.344 23.336 130.888 23.336C129.288 23.336 127.944 22.736 126.856 21.536C125.784 20.32 125.248 18.808 125.248 17C125.248 15.192 125.784 13.688 126.856 12.488C127.944 11.272 129.288 10.664 130.888 10.664C132.344 10.664 133.48 11.144 134.296 12.104V6.2ZM129.952 18.896C130.416 19.376 131.024 19.616 131.776 19.616C132.528 19.616 133.136 19.376 133.6 18.896C134.064 18.416 134.296 17.784 134.296 17C134.296 16.216 134.064 15.584 133.6 15.104C133.136 14.624 132.528 14.384 131.776 14.384C131.024 14.384 130.416 14.624 129.952 15.104C129.488 15.584 129.256 16.216 129.256 17C129.256 17.784 129.488 18.416 129.952 18.896Z" fill="#0A0E23"/>
</svg>
